<svg width="24" height="23" viewBox="0 0 24 23" fill="none" xmlns="http://www.w3.org/2000/svg">
<path d="M1.98865 21.178V18.9532C1.98865 17.7732 2.45743 16.6414 3.29187 15.807C4.12631 14.9725 5.25806 14.5037 6.43814 14.5037H10.8876C12.0677 14.5037 13.1995 14.9725 14.0339 15.807C14.8683 16.6414 15.3371 17.7732 15.3371 18.9532V21.178M16.4495 1.29988C17.4066 1.54494 18.2549 2.10157 18.8607 2.88202C19.4665 3.66247 19.7953 4.62235 19.7953 5.61033C19.7953 6.5983 19.4665 7.55818 18.8607 8.33863C18.2549 9.11908 17.4066 9.67572 16.4495 9.92077M22.0114 21.178V18.9532C22.0057 17.9712 21.6753 17.0186 21.0717 16.2439C20.4681 15.4693 19.6251 14.9161 18.6742 14.6706M4.21339 5.60477C4.21339 6.78484 4.68218 7.91659 5.51662 8.75103C6.35106 9.58547 7.48281 10.0543 8.66289 10.0543C9.84296 10.0543 10.9747 9.58547 11.8092 8.75103C12.6436 7.91659 13.1124 6.78484 13.1124 5.60477C13.1124 4.42469 12.6436 3.29294 11.8092 2.4585C10.9747 1.62406 9.84296 1.15527 8.66289 1.15527C7.48281 1.15527 6.35106 1.62406 5.51662 2.4585C4.68218 3.29294 4.21339 4.42469 4.21339 5.60477Z" stroke="black" stroke-opacity="0.6" stroke-width="2" stroke-linecap="round" stroke-linejoin="round"/>
</svg>
